<svg width="162" height="60" viewBox="0 0 162 60" fill="none" xmlns="http://www.w3.org/2000/svg">
    <g id="Frame 5140062">
        <g id="Group">
            <path id="Vector"
                  d="M83.5012 40.3313C83.0791 40.5302 82.6183 40.6324 82.1519 40.6306C81.7077 40.6454 81.2653 40.5581 80.8598 40.3722C80.4911 40.1697 80.1815 39.8723 79.9621 39.5117C79.6598 39.0137 79.4755 38.4524 79.422 37.8725C79.3133 36.9414 79.2653 36.0047 79.2801 35.068V26.8701H85.0846V24.8406H79.2801V20.5864H76.7234C76.5925 21.6792 76.4672 22.5174 76.3455 23.0991C76.2515 23.5991 76.0875 24.0823 75.8534 24.5339C75.6432 24.9131 75.3428 25.2327 74.9796 25.465C74.5354 25.7382 74.0396 25.9167 73.5234 25.9854V26.911H76.187V37.0511C76.187 39.0248 76.563 40.4726 77.317 41.3963C78.0727 42.3385 79.2156 42.7902 80.7732 42.7902C81.5916 42.7902 82.4008 42.5987 83.1344 42.2326C84.0303 41.7587 84.845 41.1454 85.5528 40.4168L84.7399 39.4411C84.3713 39.798 83.9547 40.0972 83.5012 40.3313Z"
                  fill="#FCFCFC"/>
            <path id="Vector_2" d="M92.2091 17.9575H88.9004V21.4738H92.2091V17.9575Z" fill="#FCFCFC"/>
            <path id="Vector_3"
                  d="M92.2411 40.4324C92.1213 39.7224 92.0752 39.0013 92.0992 38.2802V24.8691H86.8145V26.0289C87.2439 26.092 87.6642 26.2091 88.0624 26.382C88.3481 26.5121 88.5803 26.7351 88.7204 27.0176C88.8808 27.3744 88.9656 27.761 88.973 28.1531C88.9969 28.6196 89.0098 29.2441 89.0098 30.0172V38.3211C89.0246 38.9456 88.9859 39.57 88.8919 40.1852C88.8439 40.5012 88.7352 40.8022 88.5711 41.0754C88.4384 41.2631 88.2633 41.4155 88.0624 41.5271C87.7435 41.6869 87.4098 41.8151 87.067 41.9118V42.789H94.1121V41.9043C93.6402 41.8058 93.1923 41.6181 92.7904 41.3505C92.5066 41.1163 92.313 40.7929 92.2411 40.4324Z"
                  fill="#FCFCFC"/>
            <path id="Vector_4"
                  d="M104.588 25.138C103.926 25.3963 103.31 25.7606 102.763 26.2159C102.068 26.8181 101.428 27.4853 100.857 28.2083V24.8685H95.5723V26.0282C96.0036 26.0914 96.4239 26.2104 96.8239 26.3813C97.1077 26.5114 97.3382 26.7363 97.4782 27.017C97.6405 27.3738 97.7271 27.7604 97.7308 28.1525C97.7547 28.619 97.7676 29.2435 97.7676 30.0166V38.3205C97.7824 38.9449 97.7455 39.5675 97.657 40.1846C97.6183 40.5024 97.5077 40.8053 97.3363 41.0748C97.1999 41.2607 97.0248 41.4149 96.8239 41.5264C96.5087 41.6825 96.1806 41.8126 95.8432 41.9111V42.7884H103.087V41.9037C102.604 41.8368 102.138 41.6825 101.709 41.4484C101.386 41.2328 101.154 40.9057 101.054 40.5303C100.887 39.785 100.82 39.0211 100.855 38.2591V31.9179C100.846 31.2767 100.922 30.6374 101.078 30.0166C101.27 29.5185 101.545 29.0595 101.891 28.6562C102.232 28.2194 102.645 27.8459 103.111 27.5503C103.504 27.3069 103.956 27.1749 104.416 27.1731C104.899 27.147 105.375 27.3087 105.745 27.6247C106.144 28.0317 106.457 28.5149 106.663 29.0465H108.697V24.8704C108.072 24.7923 107.441 24.7551 106.811 24.7588C106.053 24.744 105.299 24.8722 104.588 25.138Z"
                  fill="#FCFCFC"/>
            <path id="Vector_5"
                  d="M140.779 41.0114C140.644 40.7809 140.552 40.5263 140.51 40.2606C140.445 39.9223 140.41 39.5803 140.405 39.2365C140.405 38.8685 140.385 37.8389 140.385 36.945V30.6334C140.385 29.0518 140.206 27.8661 139.848 27.0799C139.518 26.3291 138.945 25.7139 138.222 25.3329C137.332 24.9166 136.357 24.7196 135.376 24.7586C134.591 24.7586 133.808 24.8404 133.039 25.004C132.256 25.1712 131.485 25.3942 130.733 25.6712C129.749 26.0577 128.79 26.5019 127.859 27.0037V29.364H130.213C130.418 28.511 130.864 27.736 131.498 27.1338C132.134 26.6134 132.939 26.3477 133.758 26.3886C134.48 26.3532 135.197 26.5298 135.822 26.8959C136.37 27.2806 136.772 27.8438 136.956 28.4905C137.229 29.457 137.35 30.4624 137.317 31.466V32.6425C133.85 32.7986 131.251 33.3561 129.52 34.3189C127.787 35.2816 126.923 36.6476 126.923 38.4169C126.906 39.1993 127.098 39.9725 127.48 40.6546C127.854 41.305 128.412 41.8273 129.081 42.1581C129.83 42.5261 130.656 42.7082 131.489 42.6915C132.501 42.6971 133.502 42.4666 134.412 42.0187C135.515 41.4314 136.51 40.6583 137.356 39.7364L137.625 39.4502V42.7863H142.464V41.9016C142.069 41.8087 141.686 41.6712 141.321 41.4909C141.103 41.3794 140.917 41.214 140.779 41.0114ZM137.312 36.6903C137.297 37.3408 137.103 37.9746 136.751 38.5191C136.37 39.151 135.835 39.6751 135.199 40.0431C134.528 40.4445 133.76 40.6527 132.98 40.6415C132.473 40.6527 131.966 40.5765 131.483 40.4167C131.059 40.2606 130.694 39.9743 130.442 39.5971C130.143 39.1046 130.001 38.534 130.034 37.9578C130.01 36.7238 130.727 35.5975 131.852 35.1087C133.063 34.4824 134.886 34.1572 137.319 34.1293L137.312 36.6903Z"
                  fill="#FCFCFC"/>
            <path id="Vector_6"
                  d="M160.52 41.464C160.306 41.3376 160.125 41.161 159.995 40.9473C159.856 40.6778 159.771 40.3823 159.746 40.0775C159.687 39.4753 159.663 38.8713 159.672 38.2654V31.0302C159.685 30.1976 159.622 29.3668 159.486 28.5454C159.381 27.9599 159.189 27.3931 158.916 26.8653C158.675 26.4155 158.347 26.0178 157.952 25.6963C157.552 25.3785 157.095 25.1406 156.607 24.9993C156.041 24.8413 155.456 24.7651 154.87 24.7744C154.266 24.7726 153.665 24.8785 153.097 25.0904C152.509 25.3171 151.954 25.6182 151.442 25.9881C150.649 26.5995 149.906 27.2723 149.222 28.0045V24.8655H143.938V26.0252C144.369 26.0884 144.789 26.2074 145.189 26.3783C145.473 26.5084 145.703 26.7333 145.843 27.014C146.004 27.3708 146.089 27.7574 146.096 28.1495C146.12 28.616 146.133 29.2405 146.133 30.0136V38.3175C146.148 38.9419 146.109 39.5664 146.015 40.1816C145.967 40.4975 145.858 40.7986 145.694 41.0718C145.561 41.2577 145.39 41.4119 145.191 41.5234C144.87 41.6814 144.535 41.8115 144.19 41.9081V42.7854H151.239V41.9007C150.769 41.8003 150.319 41.6126 149.917 41.3469C149.635 41.1108 149.442 40.7837 149.372 40.4213C149.248 39.7077 149.198 38.981 149.226 38.258V31.1027C149.215 30.5693 149.333 30.0396 149.567 29.562C149.849 29.049 150.219 28.5881 150.66 28.2053C151.069 27.8113 151.537 27.4842 152.046 27.2333C152.466 27.0474 152.92 26.9508 153.379 26.9545C153.762 26.9415 154.146 26.9935 154.513 27.1069C155.06 27.2983 155.53 27.6682 155.851 28.1569C156.039 28.4803 156.175 28.8297 156.258 29.194C156.387 29.7497 156.468 30.3165 156.498 30.8871C156.546 31.5803 156.572 32.7401 156.572 33.5875V38.3379C156.586 38.9531 156.546 39.5701 156.454 40.1779C156.407 40.4957 156.299 40.8005 156.133 41.0755C155.998 41.2632 155.823 41.4175 155.62 41.5271C155.296 41.6851 154.959 41.8134 154.612 41.9119V42.7891H161.694V41.9044C161.29 41.8059 160.894 41.6591 160.52 41.464Z"
                  fill="#FCFCFC"/>
            <path id="Vector_7"
                  d="M126.124 25.0645H119.757C118.915 24.8619 118.054 24.7579 117.188 24.7579C116.281 24.7523 115.376 24.8768 114.504 25.1314C113.72 25.3563 112.989 25.7392 112.353 26.254C111.733 26.7651 111.243 27.4174 110.922 28.1552C110.563 29.0139 110.39 29.9376 110.41 30.8687C110.391 31.9002 110.622 32.9205 111.084 33.8405C111.531 34.701 112.213 35.4128 113.051 35.8904C112.277 36.4368 111.591 37.1003 111.018 37.8586C110.638 38.4161 110.437 39.0796 110.441 39.7561C110.43 40.3211 110.6 40.875 110.924 41.334C111.263 41.8061 111.733 42.1703 112.273 42.3785C112.782 42.5848 113.322 42.6963 113.872 42.7056C114.55 42.7706 115.497 42.8078 116.404 42.8115H119.774C120.048 42.8115 120.321 42.8468 120.587 42.9175C120.456 42.8933 120.323 42.8729 120.179 42.8561C121.165 42.9807 122.032 43.5735 122.509 44.4507V44.4136C122.913 45.1458 123.007 46.0119 122.773 46.8148C122.734 46.9542 122.684 47.0917 122.627 47.2255L122.574 47.337C122.52 47.4467 122.461 47.5545 122.395 47.6567L122.314 47.7719C122.255 47.8556 122.19 47.9373 122.122 48.0135L122.017 48.1325C121.936 48.2142 121.846 48.296 121.753 48.3741C121.237 48.796 120.6 49.0376 119.936 49.0636H110.467V50.4816H117.956C117.956 50.4816 120.506 50.4816 120.968 50.4816C123.801 50.4593 126.08 48.1232 126.058 45.2666C126.048 44.0493 125.612 42.8729 124.826 41.9473C124.443 41.4176 123.932 40.9939 123.342 40.717C123.232 40.6631 123.119 40.6148 123.001 40.5646C122.347 40.2728 121.639 40.1223 120.924 40.1223H120.718H120.235H115.908C115.296 40.1408 114.684 40.0907 114.084 39.9754C113.748 39.9197 113.444 39.7468 113.221 39.4885C113.025 39.1874 112.935 38.8306 112.961 38.4719C112.961 37.7972 113.416 37.1133 114.327 36.4219C115.158 36.6933 116.028 36.8215 116.9 36.8029C119.114 36.8029 120.824 36.2677 122.03 35.1953C123.236 34.1248 123.838 32.6045 123.838 30.6364C123.846 29.9246 123.737 29.2165 123.514 28.5418C123.324 27.9434 123.003 27.3951 122.579 26.9342H126.124V25.0645ZM120.434 32.5655C120.323 33.071 120.12 33.5505 119.84 33.9836C119.577 34.3906 119.217 34.7251 118.791 34.9556C118.308 35.2065 117.77 35.3291 117.226 35.3124C116.196 35.3682 115.206 34.9091 114.579 34.0821C113.969 33.2625 113.665 32.0934 113.665 30.5825C113.665 29.1421 113.964 28.0419 114.563 27.2836C115.201 26.503 116.172 26.0774 117.173 26.1406C117.801 26.1295 118.419 26.3042 118.95 26.6405C119.508 27.0234 119.934 27.5717 120.17 28.211C120.496 29.0603 120.649 29.9654 120.622 30.8761C120.618 31.4467 120.548 32.0154 120.415 32.5692H120.434V32.5655Z"
                  fill="#FCFCFC"/>
        </g>
        <g id="Group_2">
            <path id="Vector_8"
                  d="M47.2153 45.3977C48.8319 45.8252 50.9296 45.8326 52.3968 44.0429C53.8641 42.2531 54.0374 41.6435 56.1793 41.7086C58.7304 41.7847 58.9571 42.0152 60.4244 40.6975C61.4862 39.7441 62.0078 38.7516 62.5092 37.6626C62.9774 36.6441 63.3 35.2242 62.2769 33.7708C61.6889 32.9363 60.6364 32.0796 60.4336 31.0165C60.347 30.5593 59.8585 30.5184 59.6889 30.7414C58.9682 31.6855 57.5544 33.2114 55.689 33.624C52.9351 34.2354 52.7415 32.6018 48.9978 34.6257C44.3342 37.1459 41.278 43.831 37.9582 46.0686C37.3628 46.4701 36.8098 46.8176 36.2734 47.1447L37.1582 47.654C37.8624 47.193 38.6255 46.7266 39.4255 46.3028C41.3536 45.2788 45.3333 44.8996 47.2153 45.3977Z"
                  fill="white"/>
            <path id="Vector_9"
                  d="M34.5057 24.2146C36.0301 24.2332 37.8881 24.8428 38.6752 26.5489C39.3886 28.0989 39.6209 31.1989 38.1149 36.1816C36.7988 40.5343 35.5324 43.0265 34.3324 44.5617L35.5895 45.5634C36.2992 44.9501 37.0015 44.2643 37.6504 43.4986C40.8153 39.763 44.9074 32.3679 49.3074 29.6433C53.7074 26.9188 55.2521 27.3852 56.4097 27.4633C57.5673 27.5414 59.652 28.0859 60.5018 25.6735C61.3516 23.2612 60.2806 21.5699 59.464 21.0142C58.6474 20.4585 55.4862 19.717 55.3866 18.7859C55.3074 18.0555 56.6272 16.9478 56.8723 16.5668C57.2576 15.9628 57.0751 15.6022 56.0226 14.9313C55.3461 14.5001 55.0106 13.963 54.9737 13.6396C54.9442 13.3794 55.0714 13.0895 55.1728 12.9074C55.4935 12.3256 55.9359 11.9131 56.4668 11.0786C56.9295 10.3482 57.0788 9.19962 56.4668 8.04362C56.0189 7.19985 54.9848 6.68318 53.9194 6.52521C52.7323 6.35051 51.6484 6.75938 50.8798 7.19613C49.9802 7.70723 33.8661 22.9489 33.8661 22.9489C33.8661 22.9489 33.243 23.4842 33.326 23.8057C33.4255 24.1904 33.6743 24.2035 34.5057 24.2146Z"
                  fill="white"/>
            <path id="Vector_10"
                  d="M24.2181 40.4622C24.1407 37.5815 25.0716 23.23 26.6107 17.7344C27.4697 14.6697 27.4697 14.14 27.5379 13.5304C27.7499 11.6031 26.6734 10.0253 24.9518 9.7948C21.9029 9.38593 20.5702 6.29149 17.6947 7.61476C16.2477 8.28011 16.1703 9.85241 14.3749 10.1052C13.9141 10.1702 12.5795 10.0866 11.8293 10.9582C11.5657 11.2649 11.3279 11.5808 11.6228 11.8559C12.0155 12.222 12.4081 12.774 12.4449 13.5286C12.5224 15.086 12.0413 15.9595 10.7178 17.3515C9.39428 18.7436 9.27262 18.4927 8.54636 17.8868C7.65789 17.1471 6.88739 15.7458 6.51135 16.1138C6.06527 16.5524 6.02288 18.2659 5.58601 19.0093C5.14915 19.7528 3.21921 19.3643 2.21461 18.9759C1.21185 18.5875 0.594344 21.1764 0.574068 22.7505C0.555635 24.2485 1.36485 26.2148 2.7547 27.0697C4.14455 27.9265 2.79894 28.8112 2.05977 29.1717C0.786048 29.7943 -0.40104 29.6419 0.129831 31.0395C0.63121 32.3628 2.44502 33.8422 2.21461 37.6559C1.98235 41.4696 11.8735 38.455 14.9518 35.3978C17.3832 32.9854 18.8117 30.4931 18.5795 26.8356C18.3472 23.178 18.4209 21.1411 19.6191 18.5391C20.8172 15.9372 21.326 14.9578 21.3813 15.6807C21.4366 16.4056 21.3223 21.2805 21.1269 24.4214C20.9334 27.5344 20.5868 32.2829 17.5749 37.0314C14.5629 41.7799 12.0542 42.869 9.46801 43.8819C6.48002 45.0509 4.37312 44.7387 4.68095 45.2832C4.99063 45.8278 11.7058 46.5285 15.7205 44.7387C19.7352 42.9489 18.3159 43.815 18.6532 45.2052C18.7785 45.72 19.1583 46.1567 19.4421 46.1846C19.9214 46.2311 20.4689 45.5862 21.1232 45.0491C21.89 44.419 23.1066 43.9024 24.2753 45.1085C24.5739 45.4171 25.1048 45.9969 25.6836 46.7719L26.3324 46.0917C25.1896 44.8149 24.2808 42.8263 24.2181 40.4622Z"
                  fill="white"/>
            <path id="Vector_11"
                  d="M27.0068 34.1553C26.358 38.8407 35.7275 38.7273 35.7275 34.5865C35.7275 32.0459 32.7911 31.1706 30.1515 31.7058C28.3543 32.0664 27.1506 33.1034 27.0068 34.1553Z"
                  fill="white"/>
            <path id="Vector_12"
                  d="M28.6562 23.6093C28.3502 23.5535 28.1935 23.1818 28.3465 22.1299C28.5013 21.0798 29.5041 13.2554 29.5428 12.1664C29.5815 11.0773 30.3538 9.94728 31.434 8.85819C33.163 7.11489 31.0764 4.89582 32.3999 3.52609C33.1133 2.7864 34.4828 4.10223 36.105 3.76026C38.4976 3.25475 40.1658 -1.75211 42.1657 0.647243C42.5713 1.13418 42.6321 1.99653 43.9021 2.0876C44.7224 2.14521 45.3307 1.97051 45.5611 2.86632C45.7067 3.43131 45.4063 3.99444 45.1758 4.38473C44.9436 4.77316 41.021 9.45663 40.1455 10.8914L45.9869 5.74702L47.6662 4.3457C47.6662 4.3457 48.5491 3.45361 49.268 3.60601C50.2283 3.81044 48.9399 5.00733 48.9399 5.00733C48.9399 5.00733 35.2183 18.24 29.6589 23.2208C29.4598 23.4011 29.0801 23.6873 28.6562 23.6093Z"
                  fill="white"/>
            <path id="Vector_13"
                  d="M34.1381 49.8042C35.2957 48.9474 37.2257 47.4699 39.4266 46.3009C39.5445 46.2377 39.6662 46.1708 39.7989 46.1132L38.8625 45.3549C38.5676 45.6225 38.2579 45.866 37.9593 46.0667C34.4699 48.4196 32.0146 49.4139 30.6248 49.8024C29.2349 50.1908 29.2939 49.5199 30.0073 49.1798C30.0073 49.1798 34.0589 47.4142 37.1777 44.0261L35.5261 42.7158C33.9593 45.5668 32.4921 46.4347 31.1649 47.0796C30.046 47.6242 28.4239 47.8583 27.1188 46.838C26.4313 46.3009 25.7843 45.5073 25.2718 44.5353L24.3926 45.2323C25.4654 46.366 28.5695 50.0161 28.2322 53.9301C27.9373 57.3554 27.5151 60.0001 27.5151 60.0001L33.74 59.9759C33.74 59.9759 32.6709 53.3856 32.7483 52.2946C32.8257 51.2037 32.94 50.6889 34.1381 49.8042Z"
                  fill="white"/>
            <path id="Vector_14"
                  d="M25.6865 46.7739L26.374 46.1345C25.4782 45.1346 24.6948 43.6701 24.3759 41.9714L22.752 44.3857C23.2441 44.3857 23.7639 44.5808 24.2801 45.1142C24.5805 45.4227 25.1077 45.9988 25.6865 46.7739Z"
                  fill="white"/>
            <path id="Vector_15"
                  d="M39.2027 41.5076L36.6036 40.465C35.9787 41.9574 35.3668 43.0911 34.7695 43.9646C34.8709 44.2563 35.0055 44.5203 35.1622 44.6782C35.3704 44.8882 35.8516 44.9143 36.3769 44.8381C36.8138 44.418 37.2451 43.9813 37.6525 43.5018C38.1465 42.9145 38.6663 42.2361 39.2027 41.5076Z"
                  fill="white"/>
            <path id="Vector_16"
                  d="M41.0104 45.7009L40.227 43.9297C39.4713 44.8051 38.7211 45.554 37.9598 46.067C37.8178 46.1636 37.6851 46.2473 37.5469 46.3383C37.5893 46.4963 37.6962 46.658 37.8252 46.8215C37.8934 46.907 38.0335 46.9628 38.2031 46.9962C38.5994 46.7565 39.0068 46.5223 39.427 46.2993C39.8639 46.0688 40.4132 45.8644 41.0104 45.7009Z"
                  fill="white"/>
        </g>
    </g>
</svg>
